PathFileType	4	(X/Y/Z)	C:/Users/beibeiliu/ov580/test_trc/User2\sequence.22_training_dense_right.trc
DataRate	CameraRate	NumFrames	NumMarkers	Units	OrigDataRate	OrigDataStartFrame	OrigNumFrames
120	120	18	19	mm	120	28	83
Frame#	Time	ThumbCMC			ThumbMCP			ThumbIP			ThumbTip			IndexMCP			IndexPIP			IndexTip			MiddleMCP			MiddlePIP			MiddleTip			RingMCP			RingPIP			RingTip			PinkyMCP			PinkyPIP			PinkyTip			BackHand1			BackHand2			BackHand3	
		X0	Y0	Z0	X1	Y1	Z1	X2	Y2	Z2	X3	Y3	Z3	X4	Y4	Z4	X5	Y5	Z5	X6	Y6	Z6	X7	Y7	Z7	X8	Y8	Z8	X9	Y9	Z9	X10	Y10	Z10	X11	Y11	Z11	X12	Y12	Z12	X13	Y13	Z13	X14	Y14	Z14	X15	Y15	Z15	X16	Y16	Z16	X17	Y17	Z17	X18	Y18	Z18	
27	0.225	115.622	70.6373	-15.9657	101.089	92.2691	-33.8948	80.4091	106.991	-63.1371	61.221	109.783	-79.0821	74.7376	47.9071	-92.5091	44.6621	51.2606	-98.5622	16.6282	58.247	-76.252	66.9382	28.1873	-92.9409	29.0636	30.9627	-92.4547	4.11606	43.4105	-63.9194	60.256	6.10969	-82.5563	28.0322	17.4745	-82.0583	6.0335	27.853	-55.9134	57.68	-10.2507	-66.8372	27.553	-3.60696	-67.0534	6.85975	19.4789	-55.2019	110.728	1.71906	-46.9159	132.285	3.35454	-14.8694	127.415	36.0253	-37.4567	
28	0.233333	119.178	80.4086	-13.6449	104.9	106.336	-28.9533	83.8216	121.341	-47.8715	60.9031	119.846	-67.0272	87.0432	65.5385	-95.6655	58.6412	69.3598	-105.853	29.79	78.4225	-81.6047	77.3215	44.2663	-98.247	43.145	52.2176	-104.024	17.5403	63.3304	-73.6696	66.6493	25.1434	-90.4407	36.5314	33.4664	-93.4909	18.6419	48.3964	-67.7605	62.7296	8.04406	-72.2112	32.8488	19.5722	-78.6758	12.8911	34.923	-63.76	113.493	15.397	-44.6153	130.133	9.78259	-14.2896	130.931	48.6242	-35.3528	
29	0.241667	123.299	84.2644	-8.95096	108.585	113.221	-19.9812	85.369	133.502	-42.4973	62.9924	121.122	-61.2211	94.8648	71.617	-94.6907	69.9626	78.3781	-107.983	44.0098	88.4911	-86.3258	85.2565	52.2178	-101.149	50.7108	62.695	-107.238	32.5087	79.5007	-75.2481	75.4554	34.1179	-91.58	45.1763	48.0655	-99.0869	31.5728	63.7039	-69.4341	69.0025	18.956	-74.4158	38.2125	32.9193	-85.2594	21.3968	48.4458	-66.5277	112.582	22.0648	-45.652	128.895	12.9576	-15.2501	134.519	53.9365	-29.599	
30	0.25	126.655	89.1079	-9.64597	114.31	118.366	-19.898	91.8274	136.17	-37.834	69.3405	128.058	-54.4782	101.376	80.4745	-92.1312	71.8612	83.9072	-105.448	50.1738	96.125	-83.0501	87.4302	58.7152	-99.3001	53.304	71.9257	-106.553	40.9486	84.0098	-71.0192	75.9892	41.0852	-93.6757	49.1166	57.5011	-99.7251	38.4734	67.9201	-63.7282	69.9774	27.4714	-75.2456	43.9535	44.5614	-85.7118	30.7485	58.9151	-63.283	109.979	25.2854	-43.7084	125.064	18.3283	-16.716	135.069	54.4092	-29.6148	
31	0.258333	125.136	89.7518	-4.62974	113.152	121.521	-16.9712	92.9701	140.136	-34.1148	68.3397	132.329	-53.4169	100.119	82.6465	-86.6274	70.824	93.435	-102.416	50.4975	101.268	-74.0826	86.1212	64.8531	-98.6817	52.697	77.6416	-103.232	44.0772	90.9621	-63.6676	74.6513	49.6466	-92.857	46.7139	63.239	-95.5833	41.6812	75.1253	-63.5898	68.3081	30.1052	-74.6883	44.1414	48.8623	-84.9265	35.2454	64.0451	-57.8084	108.161	31.2392	-43.3015	125.979	21.4601	-14.5644	130.885	54.8398	-28.107	
32	0.266667	120.713	92.6694	4.28058	105.491	124.681	-9.24508	83.8171	143.989	-29.1776	61.7855	130.619	-48.7147	99.7056	91.3943	-82.1608	68.5187	104.353	-97.4895	49.719	106.947	-71.5852	88.2994	73.4637	-92.7114	53.5189	88.1046	-100.158	40.8345	88.6205	-61.3923	77.0394	55.0683	-91.1117	48.9113	69.0851	-96.2734	39.8405	72.8472	-59.5781	72.3093	35.4448	-75.5143	43.0849	49.4594	-87.2157	35.2915	62.6125	-55.5778	109.645	31.9052	-42.791	121.244	21.4321	-15.7653	128.106	60.0095	-27.2546	
33	0.275	109.681	92.2462	6.88512	90.6126	121.256	0.865505	65.3859	137.299	-19.9965	47.9184	124.566	-47.5359	97.7788	101.832	-82.1348	69.5706	106.575	-96.4035	45.1511	101.758	-71.0562	90.6604	76.8246	-91.7019	55.9376	88.7571	-102.414	37.3179	87.7049	-67.764	80.3978	59.8641	-95.599	51.6101	68.7163	-99.4128	37.8273	68.0654	-67.2995	78.3566	38.9279	-82.6862	49.129	51.0372	-92.4283	30.8111	57.9956	-61.7594	116.611	37.7067	-44.4324	126.709	28.3331	-17.9505	128.649	67.7522	-19.2905	
34	0.283333	101.251	92.714	6.68819	73.5826	116.849	-0.229962	49.5366	123.728	-18.7378	34.6591	113.983	-47.9979	98.0044	103.172	-77.637	67.3447	111.517	-94.2782	43.244	102.788	-74.5248	95.1831	90.5683	-92.7314	62.2559	92.5747	-104.256	37.3057	84.819	-71.0506	89.6778	68.1749	-94.0218	60.9856	71.5946	-102.679	39.9027	70.9387	-69.0099	87.0077	45.4983	-84.693	56.9293	53.9206	-95.4119	35.9577	58.9592	-71.8581	121.349	42.5586	-42.8036	132.652	33.1768	-14.2527	128.748	73.8662	-19.1068	
35	0.291667	99.8583	94.9445	13.6417	66.5454	114.723	-0.438186	40.3482	122.329	-19.5493	34.0997	108.232	-46.484	100.576	120.401	-72.599	74.8431	118.101	-88.3554	44.9294	110.629	-72.9693	101.559	102.377	-88.9524	67.5048	102.999	-101.311	40.1707	88.6641	-76.2581	99.3051	77.6675	-90.8732	66.9724	85.3925	-99.7733	43.0058	74.9024	-72.7733	96.9496	59.6996	-85.0439	70.6068	65.7775	-95.0672	42.9638	65.1873	-76.3939	131.919	58.3074	-38.9639	141.081	42.2789	-9.20128	134.067	81.1103	-13.0331	
36	0.3	98.418	102.621	17.3699	66.184	112.995	4.89886	40.4771	122.431	-23.9685	36.7963	111.682	-49.6587	104.795	132.084	-61.0089	76.5088	135.584	-76.7918	50.3856	117.119	-66.4037	107.917	122.779	-75.7306	76.8523	119.886	-92.0146	44.1223	104.014	-71.7428	109.694	98.0714	-82.1049	77.2699	100.718	-94.2519	52.1413	89.4108	-72.1842	110.283	73.1224	-78.3242	77.1686	81.7604	-93.4697	54.4908	81.024	-80.5485	138.346	72.6034	-31.3209	147.808	59.2351	-5.9981	137.992	92.5524	0.3099	
37	0.308333	97.6535	102.34	26.3488	63.7278	113.701	7.9655	41.78	122.039	-24.633	43.4836	114.469	-52.4545	106.305	146.687	-45.0117	81.379	146.261	-65.5092	51.4785	128.287	-57.3415	114.324	138.6	-63.552	83.5586	134.158	-83.1647	53.6934	110.592	-69.6235	120.5	117.773	-72.3191	88.0036	118.777	-87.3098	62.5955	104.497	-71.8649	121.994	93.3538	-73.6654	91.5841	99.8214	-88.7533	63.8683	94.3685	-77.9424	148.667	87.19	-21.6614	156.465	69.8852	0.34344	139.261	106.725	7.874	
38	0.316667	97.0832	104.243	31.5146	65.3627	112.918	8.47381	46.411	121.81	-24.363	47.8758	117.618	-51.0052	105.672	158.332	-36.5623	80.3564	156.875	-55.4447	57.0634	131.175	-52.0938	119.797	149.4	-52.6071	88.9914	149.627	-72.5135	58.9094	122.124	-65.8771	124.562	135.636	-63.3785	101.01	134.214	-81.6605	71.257	115.639	-70.0725	132.479	108.97	-63.7077	108.249	114.54	-83.7595	78.5098	108.313	-79.8051	152.09	98.8485	-13.1338	159.288	81.7628	9.77456	141.84	113.507	18.3788	
39	0.325	93.8419	104.244	34.7112	67.2169	113.858	5.07456	52.4424	121.199	-24.9243	53.1866	119.902	-50.5745	107.702	162.766	-22.1131	83.6783	165.818	-47.03	60.2215	138.168	-49.6135	119.792	159.43	-43.8122	91.3461	154.134	-68.8508	66.0341	124.339	-64.7049	130.259	142.189	-59.0884	104.304	142.831	-75.6171	76.6429	120.132	-67.8762	136.549	119.969	-56.8468	112.675	125.354	-80.0851	83.0961	114.924	-80.3247	156.685	103.443	-10.0193	162.674	80.4182	13.7596	140.873	115.966	25.3913	
40	0.333333	94.4176	103.305	33.4156	67.9212	110.046	7.59844	50.9005	120.429	-22.1802	57.592	123.036	-49.8565	108.806	164.852	-17.9851	87.8428	165.712	-44.6743	64.0489	136.16	-48.8385	124.953	157.468	-40.6764	97.3483	158.436	-63.416	69.261	127.824	-63.8388	134.806	140.848	-52.7619	108.171	145.173	-72.5294	81.8385	122.193	-70.4528	141.397	120.226	-57.5984	116.413	127.572	-79.0405	88.4153	117.98	-82.5414	156.067	105.406	-5.60201	164.25	81.5644	16.4099	140.679	110.66	26.0807	
41	0.341667	95.2061	100.735	34.0139	65.6456	109.172	11.5386	52.6761	122.381	-20.8367	58.0813	126.299	-50.0085	108.025	166.693	-14.5241	86.9684	167.761	-41.7108	65.1785	142.33	-46.2691	122.5	162	-37.7988	97.7592	158.103	-63.5007	71.5674	126.656	-62.3667	133.025	144.989	-52.3876	109.387	148.108	-69.4223	80.988	120.453	-67.0346	142.151	120.774	-54.22	113.323	131.046	-74.1738	89.8274	119.887	-80.596	158.168	104.282	-2.70329	161.361	82.3827	15.1499	138.071	111.092	31.1415	
42	0.35	94.8483	101.654	34.4126	65.76	109.436	13.0881	48.8647	124.382	-18.5443	56.296	129.405	-48.1628	107.228	167.183	-16.9173	87.7572	168.729	-38.9684	66.287	141.914	-44.3531	122.521	162.224	-37.3706	98.4701	160.816	-60.7249	70.552	129.954	-60.0718	129.51	147.155	-46.3697	105.271	148.105	-68.1809	79.3675	126.977	-64.448	140.383	123.657	-53.571	115.931	132.044	-73.7078	85.7031	120.388	-77.3867	156.548	106.072	-0.942387	161.543	83.4452	15.8594	136.527	114.073	30.3102	
43	0.358333	89.6948	100.86	37.218	63.9031	108.85	13.337	46.7188	121.478	-15.4774	52.3898	125.919	-42.7575	105.804	164.309	-12.2281	78.5289	168.059	-38.0649	61.2795	141.413	-41.6375	118.799	160.008	-30.8275	89.8636	162.04	-56.0341	67.1499	131.42	-56.0541	127.669	147.197	-44.8176	99.1207	147.67	-66.2567	77.3483	123.025	-65.5604	136.231	126.349	-53.5211	108.988	132.5	-69.8124	82.3957	117.851	-73.5068	152.874	106.376	0.223757	159.301	84.1861	17.7638	135.99	108.962	30.9799	
44	0.366667	89.1716	100.182	33.5282	61.0225	107.185	14.8227	43.0679	119.494	-13.8573	48.1404	124.894	-42.9065	98.497	167.486	-13.3348	75.7219	168.311	-34.6244	59.0891	135.994	-41.3603	112.646	161.053	-31.9636	86.3755	157.34	-57.5951	62.9311	126.473	-52.2996	120.725	147.176	-47.8737	93.5386	146.361	-65.8416	71.9989	121.36	-63.3112	128.514	125.164	-49.3668	102.245	129.208	-70.4158	76.5957	116.03	-67.2251	150.595	109.256	-2.25638	155.191	79.3138	18.4461	131.53	108.836	33.3359	
